<svg width="768" height="926" viewBox="0 0 768 926" fill="none" xmlns="http://www.w3.org/2000/svg">
<rect y="0.607971" width="768" height="925" fill="#F6F6F6"/>
<rect x="120.832" y="107.104" width="536.576" height="714.752" fill="#D9D9D9"/>
<rect x="157.695" y="150.112" width="221.184" height="284.672" fill="#FDFDFD"/>
<rect x="401.408" y="150.112" width="221.184" height="284.672" fill="#FDFDFD"/>
<rect x="401.408" y="459.36" width="221.184" height="284.672" fill="#FDFDFD"/>
<rect x="157.695" y="459.36" width="221.184" height="284.672" fill="#FDFDFD"/>
<path d="M507 900V897.5L514.844 889.594C517.312 887 518.562 885.562 518.562 883.594C518.562 881.375 516.75 879.938 514.375 879.938C511.875 879.938 510.25 881.531 510.25 883.938H507C506.969 879.812 510.125 877.062 514.438 877.062C518.812 877.062 521.812 879.812 521.844 883.5C521.812 886.031 520.625 888.031 516.375 892.219L511.781 896.875V897.062H522.219V900H507ZM533.906 900.312C528.656 900.312 525.594 896.094 525.594 888.688C525.594 881.344 528.719 877.062 533.906 877.062C539.094 877.062 542.219 881.344 542.219 888.688C542.219 896.094 539.125 900.312 533.906 900.312ZM533.906 897.344C536.969 897.344 538.781 894.344 538.781 888.688C538.781 883.062 536.938 879.969 533.906 879.969C530.875 879.969 529.031 883.062 529.031 888.688C529.031 894.344 530.844 897.344 533.906 897.344ZM545.781 900V897.5L553.625 889.594C556.094 887 557.344 885.562 557.344 883.594C557.344 881.375 555.531 879.938 553.156 879.938C550.656 879.938 549.031 881.531 549.031 883.938H545.781C545.75 879.812 548.906 877.062 553.219 877.062C557.594 877.062 560.594 879.812 560.625 883.5C560.594 886.031 559.406 888.031 555.156 892.219L550.562 896.875V897.062H561V900H545.781ZM572.844 900.312C568.156 900.312 564.812 897.781 564.688 894.094H568.188C568.312 896.094 570.281 897.344 572.812 897.344C575.531 897.344 577.531 895.844 577.531 893.656C577.531 891.438 575.656 889.812 572.438 889.812H570.5V887H572.438C575 887 576.812 885.562 576.812 883.406C576.812 881.344 575.281 879.938 572.875 879.938C570.594 879.938 568.594 881.188 568.5 883.25H565.188C565.281 879.562 568.688 877.062 572.906 877.062C577.344 877.062 580.156 879.875 580.125 883.219C580.156 885.781 578.562 887.656 576.125 888.25V888.406C579.219 888.844 581 890.906 581 893.781C581 897.562 577.531 900.312 572.844 900.312ZM586.312 900.219C585.094 900.219 584.062 899.219 584.094 898C584.062 896.781 585.094 895.781 586.312 895.781C587.5 895.781 588.531 896.781 588.531 898C588.531 899.219 587.5 900.219 586.312 900.219ZM598.375 877.375V900H594.906V880.812H594.781L589.375 884.344V881.062L595 877.375H598.375ZM612 900.312C606.75 900.312 603.688 896.094 603.688 888.688C603.688 881.344 606.812 877.062 612 877.062C617.188 877.062 620.312 881.344 620.312 888.688C620.312 896.094 617.219 900.312 612 900.312ZM612 897.344C615.062 897.344 616.875 894.344 616.875 888.688C616.875 883.062 615.031 879.969 612 879.969C608.969 879.969 607.125 883.062 607.125 888.688C607.125 894.344 608.938 897.344 612 897.344ZM625.25 900.219C624.031 900.219 623 899.219 623.031 898C623 896.781 624.031 895.781 625.25 895.781C626.438 895.781 627.469 896.781 627.469 898C627.469 899.219 626.438 900.219 625.25 900.219ZM638.5 900.312C633.25 900.312 630.188 896.094 630.188 888.688C630.188 881.344 633.312 877.062 638.5 877.062C643.688 877.062 646.812 881.344 646.812 888.688C646.812 896.094 643.719 900.312 638.5 900.312ZM638.5 897.344C641.562 897.344 643.375 894.344 643.375 888.688C643.375 883.062 641.531 879.969 638.5 879.969C635.469 879.969 633.625 883.062 633.625 888.688C633.625 894.344 635.438 897.344 638.5 897.344ZM658.969 877.375V900H655.5V880.812H655.375L649.969 884.344V881.062L655.594 877.375H658.969Z" fill="#737373"/>
<circle cx="714.751" cy="129.632" r="20.48" fill="#9E9E9E"/>
<rect x="704.512" y="115.296" width="172.032" height="26.624" rx="13.312" fill="#D9D9D9"/>
<circle cx="714.751" cy="291.424" r="20.48" fill="#9E9E9E"/>
<rect x="704.512" y="277.088" width="172.032" height="26.624" rx="13.312" fill="#D9D9D9"/>
<circle cx="714.751" cy="453.216" r="20.48" fill="#9E9E9E"/>
<rect x="704.512" y="438.88" width="172.032" height="26.624" rx="13.312" fill="#D9D9D9"/>
<circle cx="714.751" cy="615.008" r="20.48" fill="#9E9E9E"/>
<rect x="704.512" y="600.672" width="172.032" height="26.624" rx="13.312" fill="#D9D9D9"/>
<circle cx="714.751" cy="776.8" r="20.48" fill="#9E9E9E"/>
<rect x="704.512" y="762.464" width="172.032" height="26.624" rx="13.312" fill="#D9D9D9"/>
</svg>
